<svg width="100" height="22" viewBox="0 0 100 22" fill="none" xmlns="http://www.w3.org/2000/svg">
<path d="M0.8125 5.80256V2.09091H16.7947V5.80256H11.0611V21H6.5554V5.80256H0.8125ZM23.5902 21.2678C22.1006 21.2678 20.8203 20.9631 19.7493 20.3537C18.6844 19.7382 17.8627 18.8826 17.2841 17.7869C16.7116 16.6851 16.4254 15.4079 16.4254 13.9553C16.4254 12.4964 16.7116 11.2192 17.2841 10.1236C17.8627 9.02178 18.6844 8.16619 19.7493 7.55682C20.8203 6.94129 22.1006 6.63352 23.5902 6.63352C25.0798 6.63352 26.357 6.94129 27.4219 7.55682C28.4929 8.16619 29.3146 9.02178 29.8871 10.1236C30.4657 11.2192 30.755 12.4964 30.755 13.9553C30.755 15.4079 30.4657 16.6851 29.8871 17.7869C29.3146 18.8826 28.4929 19.7382 27.4219 20.3537C26.357 20.9631 25.0798 21.2678 23.5902 21.2678ZM23.6179 17.8608C24.1596 17.8608 24.6181 17.6946 24.9936 17.3622C25.3691 17.0298 25.6553 16.5682 25.8523 15.9773C26.0554 15.3864 26.157 14.7031 26.157 13.9276C26.157 13.1397 26.0554 12.4503 25.8523 11.8594C25.6553 11.2685 25.3691 10.8068 24.9936 10.4744C24.6181 10.142 24.1596 9.97585 23.6179 9.97585C23.0578 9.97585 22.5838 10.142 22.196 10.4744C21.8144 10.8068 21.522 11.2685 21.3189 11.8594C21.1219 12.4503 21.0234 13.1397 21.0234 13.9276C21.0234 14.7031 21.1219 15.3864 21.3189 15.9773C21.522 16.5682 21.8144 17.0298 22.196 17.3622C22.5838 17.6946 23.0578 17.8608 23.6179 17.8608ZM33.0678 21V6.81818H37.3612V9.42188H37.5181C37.8136 8.56013 38.3121 7.87997 39.0138 7.38139C39.7156 6.88281 40.5527 6.63352 41.5252 6.63352C42.5101 6.63352 43.3533 6.88589 44.055 7.39062C44.7567 7.89536 45.203 8.57244 45.3938 9.42188H45.5415C45.8062 8.5786 46.3233 7.90459 47.0927 7.39986C47.8621 6.88897 48.77 6.63352 49.8164 6.63352C51.1583 6.63352 52.2478 7.06439 53.0849 7.92614C53.922 8.78172 54.3406 9.95739 54.3406 11.4531V21H49.8256V12.4872C49.8256 11.7794 49.6441 11.2408 49.2809 10.8714C48.9177 10.496 48.4469 10.3082 47.8683 10.3082C47.2466 10.3082 46.7572 10.5114 46.4002 10.9176C46.0494 11.3177 45.8739 11.8563 45.8739 12.5334V21H41.5344V12.4411C41.5344 11.7824 41.3559 11.2623 40.9989 10.8807C40.6419 10.4991 40.171 10.3082 39.5863 10.3082C39.1924 10.3082 38.8446 10.4036 38.543 10.5945C38.2414 10.7791 38.0044 11.0438 37.832 11.3885C37.6658 11.7332 37.5827 12.1394 37.5827 12.6072V21H33.0678ZM57.1381 21V6.81818H61.6531V21H57.1381ZM59.4002 5.16548C58.7662 5.16548 58.2215 4.9562 57.766 4.53764C57.3105 4.11293 57.0827 3.60204 57.0827 3.00497C57.0827 2.41406 57.3105 1.90933 57.766 1.49077C58.2215 1.06605 58.7662 0.853692 59.4002 0.853692C60.0404 0.853692 60.5851 1.06605 61.0344 1.49077C61.4899 1.90933 61.7177 2.41406 61.7177 3.00497C61.7177 3.60204 61.4899 4.11293 61.0344 4.53764C60.5851 4.9562 60.0404 5.16548 59.4002 5.16548ZM67.1767 21L63.4835 6.81818H68.0169L69.9281 15.9034H70.0481L72.0978 6.81818H76.5204L78.6255 15.8388H78.7456L80.6014 6.81818H85.1348L81.4324 21H76.6035L74.3876 12.7365H74.2306L72.0147 21H67.1767ZM90.9446 21.2401C90.0398 21.2401 89.2365 21.0893 88.5348 20.7876C87.8393 20.4799 87.2884 20.0182 86.8821 19.4027C86.482 18.781 86.282 18.0024 86.282 17.0668C86.282 16.2789 86.4205 15.6141 86.6974 15.0724C86.9744 14.5308 87.3561 14.0907 87.8423 13.7521C88.3286 13.4136 88.8887 13.1581 89.5227 12.9858C90.1567 12.8073 90.8338 12.6873 91.554 12.6257C92.3603 12.5518 93.0097 12.4749 93.5021 12.3949C93.9946 12.3087 94.3516 12.1887 94.5732 12.0348C94.8009 11.8748 94.9148 11.6501 94.9148 11.3608V11.3146C94.9148 10.8407 94.7517 10.4744 94.4254 10.2159C94.0992 9.95739 93.6591 9.82812 93.1051 9.82812C92.508 9.82812 92.0279 9.95739 91.6648 10.2159C91.3016 10.4744 91.0708 10.8314 90.9723 11.2869L86.8082 11.1392C86.9313 10.2775 87.2483 9.50805 87.7592 8.83097C88.2763 8.14773 88.9841 7.61222 89.8828 7.22443C90.7876 6.83049 91.8741 6.63352 93.142 6.63352C94.0469 6.63352 94.8809 6.74124 95.6442 6.95668C96.4074 7.16596 97.0722 7.47372 97.6385 7.87997C98.2048 8.28007 98.6418 8.77249 98.9496 9.35724C99.2635 9.942 99.4205 10.6098 99.4205 11.3608V21H95.1733V19.0241H95.0625C94.8101 19.5043 94.487 19.9105 94.093 20.2429C93.7053 20.5753 93.2467 20.8246 92.7173 20.9908C92.1941 21.157 91.6032 21.2401 90.9446 21.2401ZM92.3388 18.2855C92.825 18.2855 93.2621 18.187 93.6499 17.9901C94.0438 17.7931 94.3577 17.5223 94.5916 17.1776C94.8255 16.8267 94.9425 16.4205 94.9425 15.9588V14.6108C94.8132 14.6785 94.6563 14.7401 94.4716 14.7955C94.2931 14.8509 94.0961 14.9032 93.8807 14.9524C93.6652 15.0017 93.4437 15.0447 93.2159 15.0817C92.9882 15.1186 92.7696 15.1525 92.5604 15.1832C92.1357 15.2509 91.7725 15.3556 91.4709 15.4972C91.1754 15.6387 90.9477 15.8234 90.7876 16.0511C90.6338 16.2727 90.5568 16.5374 90.5568 16.8452C90.5568 17.313 90.723 17.67 91.0554 17.9162C91.3939 18.1624 91.8217 18.2855 92.3388 18.2855Z" fill="#282FE8"/>
</svg>
